<mxfile host="Electron" agent="Mozilla/5.0 (Windows NT 10.0; Win64; x64) AppleWebKit/537.36 (KHTML, like Gecko) draw.io/24.7.17 Chrome/128.0.6613.36 Electron/32.0.1 Safari/537.36" version="24.7.17">
  <diagram name="Page-1" id="Vofgi0hatRqfhVlCtrFg">
    <mxGraphModel dx="1098" dy="988" grid="1" gridSize="10" guides="1" tooltips="1" connect="1" arrows="1" fold="1" page="1" pageScale="1" pageWidth="850" pageHeight="1100" math="0" shadow="0">
      <root>
        <mxCell id="0" />
        <mxCell id="1" parent="0" />
        <mxCell id="zpUaCIFT4Lb16iYSd0HI-3" value="" style="edgeStyle=orthogonalEdgeStyle;rounded=0;orthogonalLoop=1;jettySize=auto;html=1;" edge="1" parent="1" source="zpUaCIFT4Lb16iYSd0HI-1" target="zpUaCIFT4Lb16iYSd0HI-2">
          <mxGeometry relative="1" as="geometry" />
        </mxCell>
        <mxCell id="zpUaCIFT4Lb16iYSd0HI-1" value="start" style="ellipse;whiteSpace=wrap;html=1;" vertex="1" parent="1">
          <mxGeometry x="365" y="20" width="120" height="80" as="geometry" />
        </mxCell>
        <mxCell id="zpUaCIFT4Lb16iYSd0HI-6" value="" style="edgeStyle=orthogonalEdgeStyle;rounded=0;orthogonalLoop=1;jettySize=auto;html=1;" edge="1" parent="1" source="zpUaCIFT4Lb16iYSd0HI-2" target="zpUaCIFT4Lb16iYSd0HI-5">
          <mxGeometry relative="1" as="geometry" />
        </mxCell>
        <mxCell id="zpUaCIFT4Lb16iYSd0HI-2" value="input LastName" style="shape=parallelogram;perimeter=parallelogramPerimeter;whiteSpace=wrap;html=1;fixedSize=1;" vertex="1" parent="1">
          <mxGeometry x="365" y="130" width="120" height="60" as="geometry" />
        </mxCell>
        <mxCell id="zpUaCIFT4Lb16iYSd0HI-9" value="" style="edgeStyle=orthogonalEdgeStyle;rounded=0;orthogonalLoop=1;jettySize=auto;html=1;" edge="1" parent="1" source="zpUaCIFT4Lb16iYSd0HI-4" target="zpUaCIFT4Lb16iYSd0HI-8">
          <mxGeometry relative="1" as="geometry" />
        </mxCell>
        <mxCell id="zpUaCIFT4Lb16iYSd0HI-18" value="" style="edgeStyle=orthogonalEdgeStyle;rounded=0;orthogonalLoop=1;jettySize=auto;html=1;" edge="1" parent="1" source="zpUaCIFT4Lb16iYSd0HI-4" target="zpUaCIFT4Lb16iYSd0HI-10">
          <mxGeometry relative="1" as="geometry" />
        </mxCell>
        <mxCell id="zpUaCIFT4Lb16iYSd0HI-4" value="input RoomsToClean" style="shape=parallelogram;perimeter=parallelogramPerimeter;whiteSpace=wrap;html=1;fixedSize=1;" vertex="1" parent="1">
          <mxGeometry x="365" y="290" width="120" height="60" as="geometry" />
        </mxCell>
        <mxCell id="zpUaCIFT4Lb16iYSd0HI-7" value="" style="edgeStyle=orthogonalEdgeStyle;rounded=0;orthogonalLoop=1;jettySize=auto;html=1;" edge="1" parent="1" source="zpUaCIFT4Lb16iYSd0HI-5" target="zpUaCIFT4Lb16iYSd0HI-4">
          <mxGeometry relative="1" as="geometry" />
        </mxCell>
        <mxCell id="zpUaCIFT4Lb16iYSd0HI-5" value="input BathroomsToClean" style="shape=parallelogram;perimeter=parallelogramPerimeter;whiteSpace=wrap;html=1;fixedSize=1;" vertex="1" parent="1">
          <mxGeometry x="365" y="210" width="120" height="60" as="geometry" />
        </mxCell>
        <mxCell id="zpUaCIFT4Lb16iYSd0HI-11" value="" style="edgeStyle=orthogonalEdgeStyle;rounded=0;orthogonalLoop=1;jettySize=auto;html=1;" edge="1" parent="1" source="zpUaCIFT4Lb16iYSd0HI-8" target="zpUaCIFT4Lb16iYSd0HI-10">
          <mxGeometry relative="1" as="geometry" />
        </mxCell>
        <mxCell id="zpUaCIFT4Lb16iYSd0HI-8" value="BathroomTotal = BathroomsToClean * 15" style="rounded=0;whiteSpace=wrap;html=1;" vertex="1" parent="1">
          <mxGeometry x="365" y="370" width="120" height="60" as="geometry" />
        </mxCell>
        <mxCell id="zpUaCIFT4Lb16iYSd0HI-13" value="" style="edgeStyle=orthogonalEdgeStyle;rounded=0;orthogonalLoop=1;jettySize=auto;html=1;" edge="1" parent="1" source="zpUaCIFT4Lb16iYSd0HI-10" target="zpUaCIFT4Lb16iYSd0HI-12">
          <mxGeometry relative="1" as="geometry" />
        </mxCell>
        <mxCell id="zpUaCIFT4Lb16iYSd0HI-10" value="RoomTotal = RoomsToClean * 10" style="rounded=0;whiteSpace=wrap;html=1;" vertex="1" parent="1">
          <mxGeometry x="365" y="450" width="120" height="60" as="geometry" />
        </mxCell>
        <mxCell id="zpUaCIFT4Lb16iYSd0HI-17" value="" style="edgeStyle=orthogonalEdgeStyle;rounded=0;orthogonalLoop=1;jettySize=auto;html=1;" edge="1" parent="1" source="zpUaCIFT4Lb16iYSd0HI-12" target="zpUaCIFT4Lb16iYSd0HI-16">
          <mxGeometry relative="1" as="geometry" />
        </mxCell>
        <mxCell id="zpUaCIFT4Lb16iYSd0HI-12" value="OverallTotal = BathroomTotal + RoomTotal + 40" style="whiteSpace=wrap;html=1;rounded=0;" vertex="1" parent="1">
          <mxGeometry x="365" y="530" width="120" height="60" as="geometry" />
        </mxCell>
        <mxCell id="zpUaCIFT4Lb16iYSd0HI-22" value="" style="edgeStyle=orthogonalEdgeStyle;rounded=0;orthogonalLoop=1;jettySize=auto;html=1;" edge="1" parent="1" source="zpUaCIFT4Lb16iYSd0HI-14" target="zpUaCIFT4Lb16iYSd0HI-15">
          <mxGeometry relative="1" as="geometry" />
        </mxCell>
        <mxCell id="zpUaCIFT4Lb16iYSd0HI-14" value="output BathroomsToClean + BathroomTotal" style="shape=parallelogram;perimeter=parallelogramPerimeter;whiteSpace=wrap;html=1;fixedSize=1;" vertex="1" parent="1">
          <mxGeometry x="365" y="690" width="120" height="60" as="geometry" />
        </mxCell>
        <mxCell id="zpUaCIFT4Lb16iYSd0HI-24" value="" style="edgeStyle=orthogonalEdgeStyle;rounded=0;orthogonalLoop=1;jettySize=auto;html=1;" edge="1" parent="1" source="zpUaCIFT4Lb16iYSd0HI-15" target="zpUaCIFT4Lb16iYSd0HI-23">
          <mxGeometry relative="1" as="geometry" />
        </mxCell>
        <mxCell id="zpUaCIFT4Lb16iYSd0HI-15" value="output RoomsToClean + RoomsTotal" style="shape=parallelogram;perimeter=parallelogramPerimeter;whiteSpace=wrap;html=1;fixedSize=1;" vertex="1" parent="1">
          <mxGeometry x="365" y="770" width="120" height="60" as="geometry" />
        </mxCell>
        <mxCell id="zpUaCIFT4Lb16iYSd0HI-21" value="" style="edgeStyle=orthogonalEdgeStyle;rounded=0;orthogonalLoop=1;jettySize=auto;html=1;" edge="1" parent="1" source="zpUaCIFT4Lb16iYSd0HI-16" target="zpUaCIFT4Lb16iYSd0HI-14">
          <mxGeometry relative="1" as="geometry" />
        </mxCell>
        <mxCell id="zpUaCIFT4Lb16iYSd0HI-16" value="output LastName" style="shape=parallelogram;perimeter=parallelogramPerimeter;whiteSpace=wrap;html=1;fixedSize=1;" vertex="1" parent="1">
          <mxGeometry x="365" y="610" width="120" height="60" as="geometry" />
        </mxCell>
        <mxCell id="zpUaCIFT4Lb16iYSd0HI-26" value="" style="edgeStyle=orthogonalEdgeStyle;rounded=0;orthogonalLoop=1;jettySize=auto;html=1;" edge="1" parent="1" source="zpUaCIFT4Lb16iYSd0HI-23" target="zpUaCIFT4Lb16iYSd0HI-25">
          <mxGeometry relative="1" as="geometry" />
        </mxCell>
        <mxCell id="zpUaCIFT4Lb16iYSd0HI-23" value="output OverallTotal" style="shape=parallelogram;perimeter=parallelogramPerimeter;whiteSpace=wrap;html=1;fixedSize=1;" vertex="1" parent="1">
          <mxGeometry x="365" y="850" width="120" height="60" as="geometry" />
        </mxCell>
        <mxCell id="zpUaCIFT4Lb16iYSd0HI-28" value="" style="edgeStyle=orthogonalEdgeStyle;rounded=0;orthogonalLoop=1;jettySize=auto;html=1;" edge="1" parent="1" source="zpUaCIFT4Lb16iYSd0HI-25" target="zpUaCIFT4Lb16iYSd0HI-27">
          <mxGeometry relative="1" as="geometry" />
        </mxCell>
        <mxCell id="zpUaCIFT4Lb16iYSd0HI-25" value="output &quot;Thankyou for using this program&quot;" style="shape=parallelogram;perimeter=parallelogramPerimeter;whiteSpace=wrap;html=1;fixedSize=1;" vertex="1" parent="1">
          <mxGeometry x="365" y="930" width="120" height="60" as="geometry" />
        </mxCell>
        <mxCell id="zpUaCIFT4Lb16iYSd0HI-27" value="stop" style="ellipse;whiteSpace=wrap;html=1;" vertex="1" parent="1">
          <mxGeometry x="365" y="1010" width="120" height="80" as="geometry" />
        </mxCell>
      </root>
    </mxGraphModel>
  </diagram>
</mxfile>
